<svg width="59" height="20" viewBox="0 0 59 20" fill="none" xmlns="http://www.w3.org/2000/svg">
<path d="M26.7653 12.9426C25.6581 12.9426 24.7906 12.6724 24.1629 12.1318C23.5439 11.5913 23.2344 10.7848 23.2344 9.71246C23.2344 8.62266 23.557 7.81185 24.2021 7.28002C24.856 6.7482 25.7235 6.48229 26.8046 6.48229C27.2579 6.48229 27.6503 6.51716 27.9816 6.58691C28.2568 6.63632 28.5235 6.7143 28.7817 6.82085C28.8932 6.86688 28.9624 6.97774 28.9624 7.09839V7.89503C28.9624 8.12491 28.72 8.27871 28.5002 8.21141C28.1237 8.09615 27.7067 8.03853 27.2492 8.03853C26.6389 8.03853 26.1725 8.16058 25.8499 8.4047C25.536 8.64881 25.3791 9.08473 25.3791 9.71246C25.3791 10.2966 25.5273 10.7238 25.8237 10.9941C26.1202 11.2556 26.591 11.3864 27.2361 11.3864C27.6894 11.3864 28.114 11.3201 28.5098 11.1874C28.7296 11.1137 28.9754 11.2668 28.9754 11.4987V12.3476C28.9754 12.4709 28.9033 12.5836 28.7882 12.6277C28.5275 12.7275 28.2499 12.802 27.9554 12.8511C27.5979 12.9121 27.2013 12.9426 26.7653 12.9426Z" fill="#334155"/>
<path d="M31.5471 12.9426C31.1547 12.9426 30.7886 12.8729 30.4486 12.7334C30.1173 12.5939 29.8513 12.3803 29.6508 12.0926C29.4503 11.7962 29.35 11.43 29.35 10.9941C29.35 10.3576 29.5636 9.86067 29.9908 9.50322C30.4268 9.13704 31.0763 8.95396 31.9394 8.95396H33.6656V8.8101C33.6656 8.49624 33.561 8.27392 33.3518 8.14315C33.1425 8.00365 32.7502 7.9339 32.1748 7.9339C31.6103 7.9339 31.0541 8.00355 30.5062 8.14284C30.3014 8.19492 30.0955 8.04474 30.0955 7.83339V7.11192C30.0955 6.98439 30.1728 6.8688 30.2935 6.82773C30.5569 6.73811 30.8614 6.6622 31.2071 6.59999C31.6517 6.52152 32.1181 6.48229 32.6064 6.48229C33.5654 6.48229 34.3152 6.67845 34.8557 7.07078C35.405 7.46311 35.6796 8.08648 35.6796 8.94088V12.5C35.6796 12.6722 35.54 12.8119 35.3677 12.8119H34.0913C33.9427 12.8119 33.8147 12.7069 33.7855 12.5611L33.731 12.2888C33.5044 12.498 33.2123 12.6593 32.8548 12.7726C32.5061 12.886 32.0702 12.9426 31.5471 12.9426ZM32.214 11.6479C32.5453 11.6479 32.833 11.5913 33.0772 11.4779C33.3213 11.3646 33.5174 11.2207 33.6656 11.0464V10.1702H32.1748C31.5558 10.1702 31.2463 10.4187 31.2463 10.9156C31.2463 11.1423 31.3248 11.321 31.4817 11.4518C31.6386 11.5826 31.8827 11.6479 32.214 11.6479Z" fill="#334155"/>
<path d="M38.7208 12.9426C38.2238 12.9426 37.753 12.9078 37.3084 12.838C36.9679 12.7846 36.6811 12.721 36.448 12.6471C36.3264 12.6086 36.2491 12.4928 36.2491 12.3653V11.4409C36.2491 11.217 36.4794 11.0636 36.6941 11.1271C36.8846 11.1834 37.0893 11.2306 37.3084 11.2687C37.7094 11.3384 38.0669 11.3733 38.3807 11.3733C38.7556 11.3733 39.0259 11.3559 39.1916 11.321C39.3659 11.2861 39.4531 11.1902 39.4531 11.0333C39.4531 10.8589 39.3136 10.7282 39.0346 10.641C38.7556 10.5538 38.372 10.4274 37.8838 10.2617C37.3171 10.0612 36.8855 9.83016 36.5891 9.56861C36.3014 9.29834 36.1575 8.90165 36.1575 8.37854C36.1575 7.76825 36.3842 7.30182 36.8376 6.97924C37.2997 6.64794 38.032 6.48229 39.0346 6.48229C39.4269 6.48229 39.8149 6.5128 40.1985 6.57383C40.4761 6.61799 40.7172 6.66672 40.9218 6.72002C41.0529 6.75418 41.1401 6.87494 41.1401 7.01041V7.87682C41.1401 8.10473 40.901 8.25961 40.6812 8.19934C40.5614 8.16647 40.4354 8.13903 40.3032 8.11699C39.9893 8.06468 39.7059 8.03853 39.4531 8.03853C39.1305 8.03853 38.8559 8.06032 38.6292 8.10391C38.4113 8.13879 38.3023 8.23033 38.3023 8.37854C38.3023 8.54419 38.4243 8.66189 38.6684 8.73164C38.9126 8.79267 39.2657 8.89729 39.7277 9.0455C40.216 9.19371 40.5952 9.35501 40.8655 9.52937C41.1358 9.69502 41.3276 9.89555 41.4409 10.1309C41.5542 10.3663 41.6109 10.6628 41.6109 11.0202C41.6109 11.6392 41.3668 12.1144 40.8786 12.4457C40.3903 12.777 39.6711 12.9426 38.7208 12.9426Z" fill="#334155"/>
<path d="M44.5996 12.9426C43.8324 12.9426 43.2657 12.7465 42.8995 12.3541C42.542 11.9618 42.3633 11.4213 42.3633 10.7325V8.20853H41.8382C41.666 8.20853 41.5264 8.06891 41.5264 7.89666V6.92493C41.5264 6.75269 41.666 6.61306 41.8382 6.61306H42.3633V5.55789C42.3633 5.41664 42.4582 5.29303 42.5947 5.25658L44.0765 4.86083C44.2745 4.80794 44.4688 4.95718 44.4688 5.16214V6.61306H45.6425C45.8217 6.61306 45.9641 6.76383 45.9538 6.9428L45.8981 7.91453C45.8886 8.07956 45.752 8.20853 45.5867 8.20853H44.4688V10.5887C44.4688 10.8851 44.5429 11.0943 44.6911 11.2164C44.8393 11.3297 45.0617 11.3864 45.3581 11.3864C45.4745 11.3864 45.5917 11.3772 45.7099 11.3587C45.9203 11.3258 46.1297 11.4754 46.1297 11.6883V12.4749C46.1297 12.5999 46.0555 12.7143 45.9369 12.7542C45.5634 12.8798 45.1176 12.9426 44.5996 12.9426Z" fill="#334155"/>
<path d="M49.735 12.9426C48.5406 12.9426 47.6601 12.668 47.0934 12.1187C46.5267 11.5608 46.2433 10.7587 46.2433 9.71246C46.2433 8.67497 46.5267 7.87723 47.0934 7.31926C47.6688 6.76128 48.5493 6.48229 49.735 6.48229C50.9295 6.48229 51.81 6.76128 52.3767 7.31926C52.9521 7.87723 53.2398 8.67497 53.2398 9.71246C53.2398 10.7587 52.9565 11.5608 52.3898 12.1187C51.8231 12.668 50.9382 12.9426 49.735 12.9426ZM49.735 11.2949C50.2233 11.2949 50.572 11.1728 50.7812 10.9287C50.9905 10.6846 51.0951 10.2792 51.0951 9.71246C51.0951 9.14576 50.9905 8.74036 50.7812 8.49624C50.572 8.25213 50.2233 8.13007 49.735 8.13007C49.2555 8.13007 48.9112 8.25213 48.7019 8.49624C48.4927 8.74036 48.388 9.14576 48.388 9.71246C48.388 10.2792 48.4927 10.6846 48.7019 10.9287C48.9112 11.1728 49.2555 11.2949 49.735 11.2949Z" fill="#334155"/>
<path d="M56.1099 12.9426C55.613 12.9426 55.1422 12.9078 54.6975 12.838C54.357 12.7846 54.0702 12.721 53.8371 12.6471C53.7155 12.6086 53.6382 12.4928 53.6382 12.3653V11.4409C53.6382 11.217 53.8686 11.0636 54.0833 11.1271C54.2737 11.1834 54.4785 11.2306 54.6975 11.2687C55.0986 11.3384 55.456 11.3733 55.7699 11.3733C56.1448 11.3733 56.415 11.3559 56.5807 11.321C56.7551 11.2861 56.8423 11.1902 56.8423 11.0333C56.8423 10.8589 56.7028 10.7282 56.4238 10.641C56.1448 10.5538 55.7612 10.4274 55.2729 10.2617C54.7062 10.0612 54.2747 9.83016 53.9783 9.56861C53.6905 9.29834 53.5467 8.90165 53.5467 8.37854C53.5467 7.76825 53.7734 7.30182 54.2267 6.97924C54.6888 6.64794 55.4211 6.48229 56.4238 6.48229C56.8161 6.48229 57.2041 6.5128 57.5877 6.57383C57.8653 6.61799 58.1063 6.66672 58.3109 6.72002C58.442 6.75418 58.5293 6.87494 58.5293 7.01041V7.87682C58.5293 8.10473 58.2901 8.25961 58.0703 8.19934C57.9505 8.16647 57.8245 8.13902 57.6923 8.11699C57.3784 8.06468 57.0951 8.03853 56.8423 8.03853C56.5197 8.03853 56.245 8.06032 56.0184 8.10391C55.8004 8.13879 55.6914 8.23033 55.6914 8.37854C55.6914 8.54419 55.8135 8.66189 56.0576 8.73164C56.3017 8.79267 56.6548 8.89729 57.1169 9.0455C57.6051 9.19371 57.9844 9.35501 58.2546 9.52937C58.5249 9.69502 58.7167 9.89555 58.83 10.1309C58.9434 10.3663 59.0001 10.6628 59.0001 11.0202C59.0001 11.6392 58.7559 12.1144 58.2677 12.4457C57.7795 12.777 57.0602 12.9426 56.1099 12.9426Z" fill="#334155"/>
<path d="M19.6327 12.1926L19.6327 12.1928C19.1185 15.2645 17.0782 18.1804 14.5738 18.9887L14.5726 18.9891C13.3326 19.398 11.9476 19.2898 10.5427 18.8773C9.13868 18.4651 7.73011 17.7533 6.45386 16.9753C3.90253 15.4062 1.91057 13.5941 0.902733 11.041C-0.112612 8.46876 -0.125152 5.16884 1.45378 3.07222C3.03206 0.990214 6.24844 0.0608672 9.33631 0.2104C12.4102 0.372997 15.2693 1.59103 17.2068 3.7842C19.1337 5.96716 20.1444 9.14963 19.6327 12.1926Z" stroke="#334155" stroke-width="0.389838"/>
<path fill-rule="evenodd" clip-rule="evenodd" d="M19.2982 11.5383C20.2321 8.55811 20.0536 4.98736 18.2545 2.91358C16.4416 0.853525 13.0082 0.276711 10.0005 0.620053C6.99284 0.963395 4.41091 2.21316 2.79034 4.24574C1.16977 6.26459 0.510549 9.06626 0.96376 11.8405C1.41697 14.6009 2.98261 17.3477 5.37227 18.5837C7.77566 19.8335 11.0031 19.5725 13.6537 18.2541C16.2905 16.9219 18.3506 14.5185 19.2982 11.5383ZM11.7468 9.90178C11.668 10.7978 10.9159 11.5002 9.99933 11.5002C9.01439 11.5002 8.24506 10.7144 8.24506 9.74594V6.82216C8.24506 5.85311 9.03028 5.06789 9.99933 5.06789C10.9153 5.06789 11.667 5.76939 11.7466 6.66457C11.7543 6.75103 11.6827 6.82136 11.5959 6.82038L10.2917 6.80571C10.1302 6.80571 9.99933 6.93662 9.99933 7.09809C9.99933 7.25956 10.1302 7.39047 10.2917 7.39047H11.453C11.619 7.39047 11.7536 7.52505 11.7536 7.69107C11.7536 7.85709 11.619 7.99167 11.453 7.99167H10.2917C10.1309 7.99167 9.99933 8.12324 9.99933 8.28405C9.99933 8.44486 10.1309 8.57643 10.2917 8.57643H11.4612C11.6227 8.57643 11.7536 8.70733 11.7536 8.8688C11.7536 9.03028 11.6227 9.16118 11.4612 9.16118H10.2917C10.1309 9.16118 9.99933 9.29275 9.99933 9.45356C9.99933 9.61437 10.1309 9.74594 10.2917 9.74594H11.5977C11.6838 9.74594 11.7543 9.81599 11.7468 9.90178ZM12.3384 9.37279C12.3384 9.1462 12.5339 8.95067 12.7769 8.95067C13.02 8.95067 13.2155 9.1462 13.2155 9.37279V9.74594C13.2155 11.3597 12.0386 12.677 10.5053 12.9198C10.4668 12.9259 10.4379 12.9588 10.4379 12.9978V13.4689C10.4379 13.5119 10.4728 13.5469 10.5159 13.5469H11.0753C11.4079 13.5469 11.7682 13.8246 11.7529 14.1603C11.7457 14.3104 11.6115 14.424 11.4612 14.424H8.53744C8.3876 14.424 8.25292 14.3107 8.2458 14.1603C8.22971 13.8243 8.59098 13.5469 8.92338 13.5469H9.4828C9.52586 13.5469 9.56077 13.5119 9.56077 13.4689V12.9743C9.56077 12.9354 9.53181 12.9025 9.49334 12.8963C7.91958 12.6442 6.78317 11.2015 6.78317 9.58605V9.37279C6.78317 9.1462 6.97962 8.95067 7.22174 8.95067C7.46387 8.95067 7.66031 9.1462 7.66031 9.37279V9.65274C7.66031 10.8626 8.64014 12.0033 9.84766 12.0795C11.2059 12.1654 12.3384 11.0859 12.3384 9.74594V9.37279Z" fill="#334155"/>
</svg>
