<svg
    xmlns="http://www.w3.org/2000/svg"
    viewBox="8 7 31 31"
    aria-hidden="true"
    fill="currentColor"
    preserveAspectRatio="xMidYMin slice"
>
    <g id="icon-goodpods">
        <path class="fill-current" fill-rule="evenodd" clip-rule="evenodd" d="M38.4526 31.7536C38.4024 31.7536 38.3513 31.7486 38.2993 31.7385C38.1099 31.7005 37.9247 31.6395 37.7624 31.5616C37.4788 31.4256 37.2077 31.2729 36.98 31.1414C36.5845 30.9141 36.2395 30.7461 35.8422 30.6667C35.6867 30.6356 35.4682 30.5723 35.3663 30.382C35.2642 30.1915 35.3311 29.9771 35.4009 29.8116C35.4196 29.7633 35.4462 29.7094 35.4782 29.6575C35.5976 29.4524 35.8699 29.3483 36.1089 29.4195L36.1502 29.4314C36.27 29.4658 36.4056 29.5049 36.5174 29.5932C36.7539 29.7805 37.0299 29.9079 37.3222 30.043C37.447 30.1006 37.5717 30.1583 37.6934 30.2206C37.9793 30.3656 38.2191 30.4085 38.4722 30.3599C38.674 30.3208 38.8084 30.3789 38.8853 30.4345C38.9624 30.4907 39.0595 30.6005 39.083 30.8048C39.0896 30.8633 39.0935 30.9219 39.0968 30.9732L39.1002 31.0222L39.0946 31.0932C39.0918 31.1306 39.0892 31.1633 39.0855 31.1967C39.0625 31.3809 38.9734 31.5359 38.8345 31.6359C38.7266 31.7135 38.5945 31.7536 38.4526 31.7536Z"/>
        <path class="fill-current" fill-rule="evenodd" clip-rule="evenodd" d="M36.9093 25.1132C36.883 25.1132 36.8583 25.112 36.8354 25.1109C36.8176 25.1099 36.7997 25.1091 36.7821 25.1091C36.5153 25.1073 36.2842 24.9771 36.2189 24.7923C36.1774 24.6738 36.1891 24.5423 36.2515 24.4214C36.3255 24.2781 36.4597 24.1684 36.6202 24.1206C36.91 24.0356 37.2242 23.9628 37.5667 24.0007C37.7342 24.0204 37.9014 24.0348 38.069 24.0494C38.3447 24.0748 38.6302 24.0683 38.9682 24.028C39.2539 23.9941 39.3865 23.9363 39.4746 23.8071C39.5763 23.6621 39.827 23.6228 39.9638 23.6572C40.1141 23.6945 40.2632 23.8358 40.3031 23.979C40.3661 24.2 40.3567 24.5332 39.9539 24.8615C39.827 24.9616 39.6456 24.98 39.5484 24.9822C39.2914 24.9886 39.0337 24.9879 38.7763 24.987L38.5311 24.9866C38.3451 25.0028 38.1595 25.0043 37.98 25.0058C37.6578 25.0084 37.3534 25.0108 37.0616 25.0942C37.0083 25.1093 36.9567 25.1132 36.9093 25.1132Z"/>
        <path class="fill-current" fill-rule="evenodd" clip-rule="evenodd" d="M35.9996 20.9317C35.8677 20.9317 35.7341 20.8827 35.6351 20.7966C35.5485 20.7213 35.4982 20.6245 35.4934 20.5238C35.4854 20.3736 35.4871 20.2135 35.5559 20.0715C35.6365 19.9011 35.7508 19.736 35.8856 19.5954C36.3902 19.0694 36.8148 18.4615 37.2257 17.8737L37.3839 17.6478C37.506 17.4756 37.6573 17.2621 37.9634 17.1975C38.0979 17.1678 38.3487 17.1622 38.4783 17.2717C38.5416 17.3251 38.5752 17.4011 38.5708 17.4805C38.564 17.6011 38.5467 17.7405 38.4705 17.8574C38.2311 18.2238 37.9688 18.61 37.6457 19.0733C37.327 19.5317 36.9983 19.9953 36.6685 20.4508C36.5808 20.5729 36.471 20.6938 36.3431 20.8093L36.3424 20.8098C36.2634 20.8806 36.168 20.9025 36.1109 20.9155L36.043 20.9299C36.0285 20.9311 36.0142 20.9317 35.9996 20.9317Z"/>
        <path class="fill-current" fill-rule="evenodd" clip-rule="evenodd" d="M8.14625 31.0925C8.05697 31.0925 7.97242 31.0802 7.8956 31.055C7.72861 30.9951 7.6045 30.8732 7.54917 30.7183C7.50459 30.5941 7.51301 30.4667 7.57216 30.3695C7.62217 30.2867 7.6757 30.1985 7.76065 30.1328C7.88386 30.0387 8.02254 29.9329 8.1833 29.8627C8.84224 29.5747 9.48479 29.2145 10.1061 28.8662C10.3386 28.7359 10.5711 28.6056 10.805 28.4783L10.8064 28.4776C10.9504 28.4008 11.1172 28.3888 11.2615 28.3873C11.3851 28.3861 11.5013 28.4531 11.5789 28.5718C11.6461 28.6753 11.694 28.8379 11.6254 28.9844C11.497 29.2591 11.3008 29.4765 11.0418 29.6305C10.9105 29.7088 10.7802 29.7895 10.6499 29.8702C10.4436 29.9979 10.2302 30.13 10.0137 30.2521C9.78655 30.3796 9.55389 30.5013 9.32876 30.6191C9.13847 30.7185 8.94807 30.8181 8.75989 30.9218C8.55645 31.0338 8.34055 31.0925 8.14625 31.0925Z"/>
        <path class="fill-current" fill-rule="evenodd" clip-rule="evenodd" d="M8.24856 24.8426C8.17475 24.8426 8.10136 24.8415 8.02875 24.8403L7.87733 24.8384C7.76435 24.8371 7.63904 24.8145 7.52395 24.7749C7.31016 24.7003 7.17772 24.5409 7.16908 24.3483C7.15905 24.132 7.29992 23.9405 7.51171 23.8829C7.75221 23.8198 8.00264 23.7734 8.2578 23.7446C8.39808 23.7288 8.53937 23.7218 8.67604 23.715C8.85789 23.7062 9.02981 23.6977 9.19469 23.6699C9.75701 23.5748 10.2286 23.7263 10.6545 23.9037C10.8597 23.9901 10.9706 24.166 10.9519 24.3745C10.9302 24.6023 10.7099 24.7898 10.4499 24.8034C10.4128 24.8057 10.3757 24.8055 10.317 24.8052L10.183 24.8003C9.70815 24.7036 9.1494 24.758 8.7158 24.8164C8.56026 24.8375 8.40341 24.8426 8.24856 24.8426Z"/>
        <path class="fill-current" fill-rule="evenodd" clip-rule="evenodd" d="M10.7776 20.62C10.7726 20.62 10.7673 20.6199 10.7622 20.6197C10.6093 20.6136 10.4508 20.6072 10.3061 20.5363H10.306C10.0732 20.422 9.829 20.2932 9.6209 20.1248C8.88623 19.5341 8.30692 18.9088 7.85043 18.2137C7.53481 17.7343 7.36472 17.2295 7.34483 16.7132C7.33991 16.5382 7.50539 16.4254 7.6044 16.3735C7.74409 16.302 7.9407 16.3717 8.01813 16.4785C8.09675 16.5882 8.17639 16.7077 8.2298 16.8448C8.60606 17.7864 9.3644 18.4709 10.1087 19.0913C10.183 19.1533 10.2854 19.2007 10.3939 19.2508C10.4386 19.2715 10.483 19.2922 10.5265 19.314C10.5817 19.342 10.6381 19.367 10.6946 19.3922C10.8012 19.4398 10.9116 19.4888 11.0175 19.5555C11.2095 19.673 11.3228 19.8861 11.304 20.0969C11.2668 20.3921 11.0329 20.62 10.7776 20.62Z"/>
        <path class="fill-current" fill-rule="evenodd" clip-rule="evenodd" d="M32.4462 26.2482C32.4 26.9485 32.1883 26.941 32.1805 27.5992C32.1729 28.2573 32.1734 28.5972 31.8914 28.7078C31.609 28.8184 30.761 29.0225 29.8952 29.0235C29.0293 29.0246 29.0272 29.0705 28.8317 28.8344C28.6363 28.5984 28.5667 27.7003 28.5352 26.7239C28.5037 25.7476 28.4719 24.9312 28.333 24.2684C28.1941 23.6056 28.3783 22.1653 28.5871 21.7103C28.7958 21.2552 28.7591 21.3105 28.9188 21.2402C28.9188 21.2402 29.5448 21.2741 29.8952 21.2402C30.2454 21.2065 31.0498 21.065 31.3632 21.256C31.6766 21.4469 31.8266 21.8189 32.0675 22.891C32.3087 23.9632 32.4925 25.5478 32.4462 26.2482ZM28.0971 16.5543C27.9686 15.9075 28.0342 16.2883 27.607 15.4532C27.1796 14.6182 26.9438 14.6525 26.1867 14.1545C25.4295 13.6563 23.824 13.1964 23.5789 13.1112C23.3337 13.0259 23.4117 13.0779 23.1438 13.0636C22.876 13.0494 22.4575 12.8647 21.1069 13.0636C19.7563 13.2624 18.6741 14.0582 17.8973 14.9774C17.1207 15.8967 16.6441 16.9325 16.2403 17.6774C15.8366 18.4225 15.9043 19.0578 15.8575 19.4857C15.8107 19.9136 15.7391 19.8548 15.5895 19.947C15.4398 20.0389 15.1054 19.947 15.1054 19.947C14.9463 19.9162 15.1518 19.516 15.184 19.1848C15.2163 18.8536 15.1192 18.4514 15.1054 18.1742C15.0913 17.8972 15.1693 17.8441 15.2556 17.6992C15.3419 17.5542 15.6568 16.9587 15.8168 16.6353C15.9767 16.312 16.3577 15.5107 16.5359 15.1922C16.714 14.8739 16.8696 14.3987 17.8489 13.5455C18.8281 12.6923 19.364 12.4915 19.8672 12.2839C20.3707 12.0763 21.4058 11.5125 21.6911 11.4165C21.9765 11.3204 22.0888 11.2922 22.5254 11.2534C22.9619 11.2148 24.1261 11.3982 24.4375 11.4303C24.7489 11.4625 24.7215 11.4779 25.0641 11.7561C25.4067 12.0345 25.8973 12.5477 26.3403 12.868C26.7831 13.1882 27.2719 13.5233 27.4448 13.6798C27.6179 13.8363 27.9724 14.1022 28.0113 14.3741C28.0501 14.6459 28.2553 14.7829 28.3985 14.9693C28.5416 15.1556 28.5668 15.3633 28.9144 16.6869C29.2621 18.0104 29.3485 18.016 29.4308 18.5321C29.5131 19.0483 29.4346 19.4042 29.2809 19.5983C29.1273 19.7923 29.0783 19.6965 28.9682 19.5933C28.8583 19.4902 28.793 18.8763 28.5657 18.1929C28.3385 17.5096 28.2257 17.2013 28.0971 16.5543ZM17.7261 23.3043C17.893 24.3735 18.1844 26.6732 17.9994 27.6374C17.8144 28.6016 17.5002 29.0783 17.1536 29.3072C16.8072 29.5361 16.0465 29.667 15.174 29.4006C14.3013 29.1342 13.9664 28.9271 13.6549 28.0077C13.3432 27.0884 13.5168 27.2403 13.4016 26.6269C13.2864 26.0137 13.1423 25.811 13.1687 25.3352C13.1952 24.8596 13.0957 23.3172 13.2025 22.8028C13.3094 22.2883 13.2771 21.7901 13.7523 21.7053C14.2276 21.6206 14.5116 21.8224 14.8242 21.7025C15.1368 21.5827 15.105 21.5325 15.4228 21.4792C15.7249 21.4285 16.3134 21.2552 16.6966 21.4307C17.0799 21.606 17.5593 22.2348 17.7261 23.3043ZM33.4638 24.2908C33.2548 23.6907 33.346 23.1493 33.1838 22.1779C33.0215 21.2065 32.6002 20.8748 32.6002 20.8748C32.6002 20.8748 32.4009 20.2764 31.6117 20.0533C30.8227 19.8305 31.0533 20.0069 30.9717 19.5546C30.8903 19.1022 30.875 19.0264 30.7726 18.5674C30.6699 18.1085 30.6421 17.8951 30.6192 17.4144C30.5963 16.9337 30.5956 16.392 30.3791 15.9632C30.1627 15.5347 29.7582 14.7288 29.3293 14.0123C28.9004 13.2958 28.6275 12.933 27.9563 12.3749C27.2853 11.8168 26.8728 11.2317 26.1929 10.8693C25.513 10.5071 25.5602 10.4032 24.881 10.2214C24.2018 10.0396 24.1083 10.1489 23.2214 10.0737C22.3346 9.99857 22.2479 9.93748 21.5727 10.0737C20.8976 10.2101 20.4587 10.607 19.6667 10.9728C18.8747 11.3386 18.5505 11.3275 18.0104 11.7917C17.4704 12.256 17.5893 12.3985 17.1355 12.7763C16.6817 13.1541 16.4112 13.3678 15.8012 14.4037C15.1912 15.4398 14.7476 16.4914 14.5284 16.9798C14.3092 17.4683 14.1101 17.615 14.0828 18.1625C14.0556 18.7101 14.1686 18.6245 14.0389 19.2533C13.9091 19.882 13.772 20.3952 13.772 20.3952C13.772 20.3952 12.9751 20.3799 12.5142 21.256C12.0533 22.132 12.092 22.4816 12.0298 22.9949C11.9675 23.5081 12.0927 24.8658 12.1869 25.7622C12.2811 26.6587 12.3413 27.9347 12.4977 28.3878C12.6539 28.8406 13.2197 30.1231 14.4484 30.5055C15.6771 30.8877 15.9542 30.9407 16.3172 30.8493C16.6804 30.7579 17.3239 30.5729 17.778 30.4197C18.232 30.2667 18.7728 29.7786 19.0244 28.6648C19.2761 27.5511 19.2919 26.9992 19.1914 25.4607C19.091 23.9222 19.1008 23.1113 18.6725 21.9458C18.2444 20.7803 17.6166 20.6118 17.3318 20.3499C17.0472 20.088 17.0244 20.167 17.0618 19.8105C17.0991 19.454 17.0157 18.6443 17.9187 17.228C18.8217 15.8118 19.756 14.9274 21.1069 14.5294C22.4576 14.1313 23.4601 14.4518 23.9594 14.6339C24.459 14.8161 24.6009 14.8816 25.0333 14.9633C25.4655 15.0449 25.7679 15.2993 26.0385 15.6214C26.3092 15.9436 26.8712 16.7437 27.1212 17.2964C27.371 17.849 27.2285 18.1102 27.5092 18.7211C27.7899 19.332 28.0654 19.5276 28.0068 19.947C27.9483 20.3662 27.8873 20.2453 27.7837 20.5434C27.6801 20.8417 27.2812 21.4049 27.2235 22.091C27.1657 22.7774 27.1133 23.3445 27.1255 24.1023C27.1376 24.8598 27.3042 25.1037 27.2938 25.9802C27.2835 26.8565 27.2104 28.316 27.4666 29.0235C27.7228 29.7313 27.8971 30.1967 28.2009 30.3187C28.5047 30.4405 28.4331 30.4543 28.6206 30.4397C28.6206 30.4397 28.832 30.3194 29.3852 30.3317C29.9382 30.3438 31.4491 30.4432 32.2599 29.9835C33.0705 29.5239 33.2175 29.2696 33.3952 27.7709C33.5731 26.2724 33.6727 24.8908 33.4638 24.2908Z"/>
    </g>
</svg>